PathFileType	4	(X/Y/Z)	OpenSim_Sub03_EMGBaseline_Gyro.trc
DataRate	CameraRate	NumFrames	NumMarkers	Units	OrigDataRate	OrigDataStartFrame	OrigNumFrames
100	100	17	8	m	100	922	7372
Frame#	Time	torso_imu_offset_imu	pelvis_imu_offset_imu	tibia_r_imu_offset_imu	femur_r_imu_offset_imu	tibia_l_imu_offset_imu	femur_l_imu_offset_imu	toes_r_imu_offset_imu	toes_l_imu_offset_imu
				X1	Y1	Z1	X2	Y2	Z2	X3	Y3	Z3	X4	Y4	Z4	X5	Y5	Z5	X6	Y6	Z6	X7	Y7	Z7	X8		Y8	Z8	

922	9.21000000	0.22898907	0.00228183	-0.13196517	0.48486829	-0.17082760	0.09507986	0.89589548	-0.76537768	-1.45363012	-0.25343785	-0.50099671	-0.11979962	0.45629673	0.23642610	1.24854814	0.38845129	0.39507037	0.18752031	0.18201489	-1.52638020	-0.51093960	0.16984150	-1.50028326	0.22433546
923	9.22000000	0.24567666	0.03174118	-0.16447959	0.45300090	-0.16910517	0.16386960	0.77560323	-0.78264681	-1.35033078	-0.31263641	-0.57630223	-0.29647520	0.52327942	0.25970746	1.33475855	0.40709276	0.43403337	0.17243399	0.49570843	-1.43703259	-0.64052530	0.21116673	-1.63419336	0.21588278
924	9.23000000	0.24619091	0.04670611	-0.18323364	0.37807920	-0.17161203	0.27783805	0.54509439	-0.65049963	-0.86097260	-0.28124637	-0.65054013	-0.46281660	0.55774231	0.29298061	1.40326850	0.35900187	0.45403809	0.16413828	0.88697867	-1.84684729	-1.06030969	0.24767710	-1.76307982	0.20557111
925	9.24000000	0.24495870	0.04774113	-0.19924285	0.26361953	-0.20715179	0.35442178	0.72858155	-0.51954490	-0.59065813	0.00646189	-0.59302181	-0.51792167	0.54297915	0.30190804	1.44064514	0.25364868	0.47656037	0.14833615	0.79348694	-1.88731713	-1.27269146	0.29080023	-1.93290584	0.22582108
926	9.25000000	0.23157506	0.06931519	-0.19304315	0.17775075	-0.25371001	0.43769942	1.05292497	-0.60518496	-0.80308365	0.18687028	-0.49062210	-0.52134789	0.55717971	0.31309683	1.45574890	0.14779831	0.51279534	0.12196975	0.66444051	-1.69609039	-1.25141586	0.31254164	-2.12547897	0.25739400
927	9.26000000	0.22086543	0.10007444	-0.18137704	0.09590413	-0.29087614	0.50520682	0.97593178	-0.74981830	-1.02659548	0.17354581	-0.46248387	-0.52648930	0.59833946	0.32569018	1.51236902	0.05492034	0.55790220	0.08925066	0.65320517	-1.63389495	-1.11877850	0.34797580	-2.33352155	0.29867394
928	9.27000000	0.17376723	0.11686176	-0.16797236	-0.02471228	-0.32043502	0.53782497	0.87571456	-0.78223951	-1.06500922	0.25168599	-0.39146866	-0.39474840	0.64210885	0.36400399	1.60787532	-0.03434908	0.58510721	0.05115759	0.79418750	-1.61144049	-0.94872347	0.37292343	-2.58280664	0.31753910
929	9.28000000	0.11408356	0.11946113	-0.16328606	-0.13911670	-0.35925824	0.54492702	1.12703609	-0.72790888	-1.04530515	0.35662189	-0.36425305	-0.13549933	0.67833495	0.39979794	1.65358452	-0.10996833	0.60543655	-0.01323767	0.86936097	-1.49216021	-0.74316991	0.34151175	-2.84162708	0.36040349
930	9.29000000	0.07650162	0.12958963	-0.16035581	-0.21813798	-0.40026106	0.53071865	1.42967109	-0.71578248	-1.04197287	0.40350721	-0.47902805	-0.00410384	0.66605082	0.39896792	1.66306642	-0.12392856	0.61837508	-0.10777639	0.85483976	-1.38215384	-0.62936356	0.28725563	-3.19737185	0.43025305
931	9.30000000	0.05012943	0.14755291	-0.14015835	-0.24356790	-0.42723468	0.49713605	1.58218229	-0.70259217	-1.03880236	0.61925280	-0.59096057	-0.14306801	0.67921009	0.40585982	1.72403344	-0.04785554	0.64163868	-0.24617038	0.72543857	-1.30049578	-0.54833674	0.20730412	-3.60044053	0.51928107
932	9.31000000	0.03031117	0.16031699	-0.12828327	-0.20693358	-0.44067701	0.45184005	1.44965514	-0.68819323	-0.99167431	0.74327214	-0.51045427	-0.38282891	0.75904036	0.44411496	1.82070050	0.04290546	0.69116824	-0.39703387	0.53620868	-1.22390953	-0.48132022	0.18982651	-3.97503810	0.64485822
933	9.32000000	0.01239730	0.17215157	-0.12732976	-0.14539743	-0.41613874	0.40502048	1.18455743	-0.67289109	-0.92001638	0.64304256	-0.43810637	-0.66781382	0.85254685	0.44216657	1.85389471	0.09143770	0.74546983	-0.54256864	0.37402510	-1.14113725	-0.44404153	0.16477245	-4.33793342	0.76548145
934	9.33000000	0.00472877	0.17909272	-0.13308263	-0.07837844	-0.35123837	0.34996198	0.92180287	-0.67427412	-0.85632061	0.39563109	-0.50003090	-0.90255285	0.87438633	0.37857995	1.85308346	0.12765979	0.80527939	-0.68422141	0.37180926	-1.00791484	-0.43096678	0.02872574	-4.57004378	0.90949219
935	9.34000000	0.01364317	0.17223459	-0.13729674	-0.01482887	-0.27535756	0.29797155	0.76462853	-0.65728154	-0.79185160	-0.24109826	-0.45596787	-0.98331969	0.82246046	0.25641418	1.89326438	0.18778924	0.85308530	-0.82256269	0.38348321	-0.88795883	-0.38918316	0.01356575	-4.87012409	1.00014997
936	9.35000000	0.04201321	0.15797945	-0.14020808	0.03636325	-0.19373837	0.25835443	0.55314801	-0.66314604	-0.73062340	-0.60046636	-0.46236894	-0.93798422	0.76777076	0.15494168	1.96568541	0.24516046	0.87902375	-0.99273601	0.36692015	-0.82063524	-0.32256346	0.18607742	-5.09397549	1.06888655
937	9.36000000	0.08457329	0.13997115	-0.14271675	0.06476330	-0.12394820	0.23930416	0.21558437	-0.68887610	-0.68753470	-0.98657051	-0.44570080	-0.84809247	0.76533033	0.16386194	2.03114108	0.28218031	0.88216268	-1.18322152	0.42014732	-0.70256473	-0.29310271	0.36104485	-5.06534122	1.15481036
938	9.37000000	0.13280018	0.12121206	-0.14234374	0.07239445	-0.07341876	0.23312435	-0.05721122	-0.63575389	-0.65136792	-1.08396934	-0.43868604	-0.91732388	0.74206728	0.19263876	2.08696598	0.29315253	0.86134420	-1.36547717	0.34136761	-0.63063836	-0.20569868	0.52452439	-4.94519661	1.23268106
